Coordinates
version=1
nRows=14
nColumns=40
inDegrees=yes
endheader
time	pelvis_tilt	pelvis_list	pelvis_rotation	pelvis_tx	pelvis_ty	pelvis_tz	hip_flexion_r	hip_adduction_r	hip_rotation_r	knee_angle_r	knee_angle_r_beta	ankle_angle_r	subtalar_angle_r	mtp_angle_r	hip_flexion_l	hip_adduction_l	hip_rotation_l	knee_angle_l	knee_angle_l_beta	ankle_angle_l	subtalar_angle_l	mtp_angle_l	lumbar_extension	lumbar_bending	lumbar_rotation	arm_flex_r	arm_add_r	arm_rot_r	elbow_flex_r	pro_sup_r	wrist_flex_r	wrist_dev_r	arm_flex_l	arm_add_l	arm_rot_l	elbow_flex_l	pro_sup_l	wrist_flex_l	wrist_dev_l
1760625103.32299995	      0.04360023	     -0.17287493	      2.09308697	     -0.03150371	      0.98894549	      0.00870781	     80.00000000	     -7.00000000	      0.00000000	     80.00000000	      1.39626340	      0.00000000	      0.00000000	      0.00000000	     80.00000000	     -7.00000000	      0.00000000	     80.00000000	      1.39626340	      0.00000000	      0.00000000	      0.00000000	      2.00920956	     -2.30500068	      3.43131148	     12.33864265	    -10.80318514	     15.91948225	     47.97293776	    145.05848165	    -15.90913052	     35.00000010	      5.04586351	     -5.78307608	     -4.07646863	     84.03450261	    127.56774196	     -4.15520900	     11.36930019
1760625103.35599995	      0.05180783	     -0.17788270	      2.07673229	     -0.03186895	      0.98776738	      0.00933418	     80.00000000	     -7.00000000	      0.00000000	     80.00000000	      1.39626340	      0.00000000	      0.00000000	      0.00000000	     80.00000000	     -7.00000000	      0.00000000	     80.00000000	      1.39626340	      0.00000000	      0.00000000	      0.00000000	      2.43309002	     -2.32960827	      4.04839335	     12.06632446	    -10.90681371	     15.33773235	     47.88633914	    144.99792408	    -15.71467998	     35.00000010	      4.59445418	     -5.50482805	     -3.43827388	     85.10610509	    128.99699233	      1.28926152	     18.96149354
1760625103.39000010	      0.07378073	     -0.17827942	      2.09070832	     -0.02968680	      0.98832506	      0.01084436	     80.00000000	     -7.00000000	      0.00000000	     80.00000000	      1.39626340	      0.00000000	      0.00000000	      0.00000000	     80.00000000	     -7.00000000	      0.00000000	     80.00000000	      1.39626340	      0.00000000	      0.00000000	      0.00000000	      2.59372214	     -2.27087922	      4.20541980	     11.84900804	    -10.91367657	     15.29954713	     47.73041368	    144.98294544	    -15.82691336	     35.00000010	      4.57310642	     -5.45686817	     -2.83358000	     84.83953355	    128.87089467	      4.01364384	     23.06611163
1760625103.42300010	      0.04918246	     -0.18778099	      2.10252131	     -0.02788641	      0.98855510	      0.01110532	     80.00000000	     -7.00000000	      0.00000000	     80.00000000	      1.39626340	      0.00000000	      0.00000000	      0.00000000	     80.00000000	     -7.00000000	      0.00000000	     80.00000000	      1.39626340	      0.00000000	      0.00000000	      0.00000000	      2.65009680	     -2.22105428	      4.19384442	     11.81785386	    -10.97449561	     15.39792741	     47.63566161	    144.92254234	    -15.95482600	     35.00000010	      4.71952305	     -5.47592697	     -2.48907704	     84.40287900	    129.15497144	      6.59122063	     26.77644088
1760625103.45700002	      0.05240555	     -0.19065067	      2.09251892	     -0.02474372	      0.98905053	      0.01117586	     80.00000000	     -7.00000000	      0.00000000	     80.00000000	      1.39626340	      0.00000000	      0.00000000	      0.00000000	     80.00000000	     -7.00000000	      0.00000000	     80.00000000	      1.39626340	      0.00000000	      0.00000000	      0.00000000	      2.60512937	     -2.24024490	      4.19097754	     12.06089361	    -10.97667904	     15.36583419	     47.77510959	    144.86276860	    -15.76788399	     35.00000010	      4.81446294	     -5.71052472	     -2.21680276	     83.64751375	    129.85497582	      8.47635728	     29.87453011
1760625103.49000001	      0.08383574	     -0.18426079	      2.10588442	     -0.02240894	      0.99041187	      0.01111870	     80.00000000	     -7.00000000	      0.00000000	     80.00000000	      1.39626340	      0.00000000	      0.00000000	      0.00000000	     80.00000000	     -7.00000000	      0.00000000	     80.00000000	      1.39626340	      0.00000000	      0.00000000	      0.00000000	      2.47898226	     -2.27427680	      4.11459732	     12.37670126	    -10.97190604	     15.35720161	     47.93724937	    144.85566799	    -15.53725339	     35.00000010	      4.65947001	     -5.89178642	     -2.29671082	     83.05439395	    129.83201598	      8.63176363	     29.92735373
1760625103.52300000	      0.07067290	     -0.17929137	      2.08898921	     -0.02319053	      0.99053058	      0.01048915	     80.00000000	     -7.00000000	      0.00000000	     80.00000000	      1.39626340	      0.00000000	      0.00000000	      0.00000000	     80.00000000	     -7.00000000	      0.00000000	     80.00000000	      1.39626340	      0.00000000	      0.00000000	      0.00000000	      2.37957231	     -2.29970844	      4.04756158	     12.58737798	    -10.90238395	     15.27596017	     48.16479722	    144.95076096	    -15.27976206	     35.00000010	      4.42755615	     -6.04476289	     -2.53560262	     82.57821599	    129.60104156	      8.12577571	     28.95493805
1760625103.55699992	      0.04624776	     -0.18079595	      2.05823445	     -0.02501391	      0.99058490	      0.00979209	     80.00000000	     -7.00000000	      0.00000000	     80.00000000	      1.39626340	      0.00000000	      0.00000000	      0.00000000	     80.00000000	     -7.00000000	      0.00000000	     80.00000000	      1.39626340	      0.00000000	      0.00000000	      0.00000000	      2.29718464	     -2.27471569	      4.12698750	     12.67840038	    -10.95159459	     14.85199073	     48.43559193	    145.22870274	    -14.91999329	     35.00000010	      4.09913485	     -6.01224191	     -2.76982061	     82.50699634	    129.73694055	      7.86846736	     27.97194935
1760625103.58999991	      0.06278723	     -0.18116991	      2.06404717	     -0.02497085	      0.99125188	      0.01003072	     80.00000000	     -7.00000000	      0.00000000	     80.00000000	      1.39626340	      0.00000000	      0.00000000	      0.00000000	     80.00000000	     -7.00000000	      0.00000000	     80.00000000	      1.39626340	      0.00000000	      0.00000000	      0.00000000	      2.21452551	     -2.38246365	      4.23963769	     12.91077560	    -10.91530442	     14.41432865	     48.85028287	    145.39214801	    -14.25556788	     35.00000010	      3.94597694	     -6.06250765	     -2.70999552	     82.46367067	    129.55554039	      7.59451484	     27.24255035
1760625103.62400007	      0.06993889	     -0.17145122	      2.08450322	     -0.02422139	      0.99014134	      0.01055210	     80.00000000	     -7.00000000	      0.00000000	     80.00000000	      1.39626340	      0.00000000	      0.00000000	      0.00000000	     80.00000000	     -7.00000000	      0.00000000	     80.00000000	      1.39626340	      0.00000000	      0.00000000	      0.00000000	      2.35773990	     -2.71109253	      4.41620549	     12.88438447	    -10.77608928	     13.93155940	     49.40461180	    145.44401089	    -13.53230522	     35.00000010	      3.63931724	     -6.32711480	     -2.50444168	     82.50510682	    129.52059701	      7.30645327	     26.58715462
1760625103.65700006	      0.06091101	     -0.16099726	      2.10433521	     -0.02254200	      0.98965246	      0.01102321	     80.00000000	     -7.00000000	      0.00000000	     80.00000000	      1.39626340	      0.00000000	      0.00000000	      0.00000000	     80.00000000	     -7.00000000	      0.00000000	     80.00000000	      1.39626340	      0.00000000	      0.00000000	      0.00000000	      2.46860953	     -2.91695761	      4.50725061	     12.90008073	    -10.66984638	     13.76608638	     49.65155399	    145.39425422	    -13.10645235	     35.00000010	      3.53335457	     -6.41593871	     -2.39083048	     82.74492275	    129.68767898	      7.42008833	     26.52097709
1760625103.69099998	      0.06806633	     -0.14807045	      2.13322710	     -0.02113157	      0.99000862	      0.01153815	     80.00000000	     -7.00000000	      0.00000000	     80.00000000	      1.39626340	      0.00000000	      0.00000000	      0.00000000	     80.00000000	     -7.00000000	      0.00000000	     80.00000000	      1.39626340	      0.00000000	      0.00000000	      0.00000000	      2.44112580	     -3.07190857	      4.49007332	     13.12241311	    -10.57913441	     13.68432240	     49.92775064	    145.34600944	    -12.67811773	     35.00000010	      3.69117230	     -6.46921412	     -2.33109049	     82.88552298	    129.70233661	      7.80477605	     26.98678842
1760625103.72399998	      0.06558905	     -0.14063752	      2.14344702	     -0.02155164	      0.99054536	      0.01218575	     80.00000000	     -7.00000000	      0.00000000	     80.00000000	      1.39626340	      0.00000000	      0.00000000	      0.00000000	     80.00000000	     -7.00000000	      0.00000000	     80.00000000	      1.39626340	      0.00000000	      0.00000000	      0.00000000	      2.31350891	     -3.07712291	      4.29426623	     13.18119393	    -10.50890827	     13.86414656	     49.98208370	    145.41785720	    -12.73488357	     35.00000010	      4.02690154	     -6.42091744	     -2.44773465	     82.93732636	    129.71957798	      8.12390286	     27.49801923
1760625103.75799990	      0.03435648	     -0.12719783	      2.14522400	     -0.02143744	      0.98960229	      0.01235591	     80.00000000	     -7.00000000	      0.00000000	     80.00000000	      1.39626340	      0.00000000	      0.00000000	      0.00000000	     80.00000000	     -7.00000000	      0.00000000	     80.00000000	      1.39626340	      0.00000000	      0.00000000	      0.00000000	      2.27366596	     -2.96027264	      4.11512209	     13.05030270	    -10.46529153	     14.27699329	     49.49416535	    145.41492371	    -13.38040662	     35.00000010	      4.27642603	     -6.29276326	     -2.55347983	     82.97422382	    129.82840760	      7.96597947	     27.53408155
